<mxfile host="app.diagrams.net" modified="2022-03-14T22:18:52.478Z" agent="5.0 (Windows NT 10.0; Win64; x64) AppleWebKit/537.36 (KHTML, like Gecko) Chrome/98.0.4758.109 Safari/537.36 OPR/84.0.4316.31" etag="okG_ZraZJe7rBG_qmgfi" version="17.0.0" type="github">
  <diagram id="cuxjnFyXhjPsf3D737VK" name="Celaya">
    <mxGraphModel dx="1068" dy="452" grid="1" gridSize="10" guides="1" tooltips="1" connect="1" arrows="1" fold="1" page="1" pageScale="1" pageWidth="827" pageHeight="1169" math="0" shadow="0">
      <root>
        <mxCell id="0" />
        <mxCell id="1" parent="0" />
        <mxCell id="2gnMtjLJQHhoRtekoATp-1" value="" style="edgeStyle=orthogonalEdgeStyle;rounded=0;orthogonalLoop=1;jettySize=auto;html=1;" edge="1" parent="1" source="2gnMtjLJQHhoRtekoATp-3" target="2gnMtjLJQHhoRtekoATp-10">
          <mxGeometry relative="1" as="geometry">
            <Array as="points">
              <mxPoint x="200" y="95" />
              <mxPoint x="200" y="95" />
            </Array>
          </mxGeometry>
        </mxCell>
        <mxCell id="2gnMtjLJQHhoRtekoATp-2" value="wan" style="edgeLabel;html=1;align=center;verticalAlign=middle;resizable=0;points=[];" vertex="1" connectable="0" parent="2gnMtjLJQHhoRtekoATp-1">
          <mxGeometry x="-0.2667" y="1" relative="1" as="geometry">
            <mxPoint x="27" y="1" as="offset" />
          </mxGeometry>
        </mxCell>
        <mxCell id="2gnMtjLJQHhoRtekoATp-3" value="Total Play" style="fontColor=#0066CC;verticalAlign=top;verticalLabelPosition=bottom;labelPosition=center;align=center;html=1;outlineConnect=0;fillColor=#CCCCCC;strokeColor=#6881B3;gradientColor=none;gradientDirection=north;strokeWidth=2;shape=mxgraph.networks.wireless_modem;" vertex="1" parent="1">
          <mxGeometry x="80" y="25" width="100" height="85" as="geometry" />
        </mxCell>
        <mxCell id="2gnMtjLJQHhoRtekoATp-4" value="Puerto 1" style="edgeStyle=orthogonalEdgeStyle;rounded=0;orthogonalLoop=1;jettySize=auto;html=1;" edge="1" parent="1" source="2gnMtjLJQHhoRtekoATp-10" target="2gnMtjLJQHhoRtekoATp-11">
          <mxGeometry relative="1" as="geometry">
            <Array as="points">
              <mxPoint x="320" y="110" />
              <mxPoint x="320" y="110" />
            </Array>
          </mxGeometry>
        </mxCell>
        <mxCell id="2gnMtjLJQHhoRtekoATp-5" value="" style="edgeStyle=orthogonalEdgeStyle;rounded=0;orthogonalLoop=1;jettySize=auto;html=1;" edge="1" parent="1" source="2gnMtjLJQHhoRtekoATp-10" target="2gnMtjLJQHhoRtekoATp-13">
          <mxGeometry relative="1" as="geometry">
            <Array as="points">
              <mxPoint x="450" y="95" />
              <mxPoint x="450" y="50" />
            </Array>
          </mxGeometry>
        </mxCell>
        <mxCell id="2gnMtjLJQHhoRtekoATp-6" value="Puerto 2" style="edgeLabel;html=1;align=center;verticalAlign=middle;resizable=0;points=[];" vertex="1" connectable="0" parent="2gnMtjLJQHhoRtekoATp-5">
          <mxGeometry x="0.2744" y="2" relative="1" as="geometry">
            <mxPoint as="offset" />
          </mxGeometry>
        </mxCell>
        <mxCell id="2gnMtjLJQHhoRtekoATp-7" value="" style="edgeStyle=orthogonalEdgeStyle;rounded=0;orthogonalLoop=1;jettySize=auto;html=1;entryX=0;entryY=0.5;entryDx=0;entryDy=0;entryPerimeter=0;" edge="1" parent="1" source="2gnMtjLJQHhoRtekoATp-10" target="2gnMtjLJQHhoRtekoATp-12">
          <mxGeometry relative="1" as="geometry" />
        </mxCell>
        <mxCell id="2gnMtjLJQHhoRtekoATp-8" value="Puerto 3" style="edgeLabel;html=1;align=center;verticalAlign=middle;resizable=0;points=[];" vertex="1" connectable="0" parent="2gnMtjLJQHhoRtekoATp-7">
          <mxGeometry x="0.4818" y="1" relative="1" as="geometry">
            <mxPoint as="offset" />
          </mxGeometry>
        </mxCell>
        <mxCell id="2gnMtjLJQHhoRtekoATp-9" value="Puerto 4 Libre" style="edgeStyle=orthogonalEdgeStyle;rounded=0;orthogonalLoop=1;jettySize=auto;html=1;entryX=0;entryY=0.5;entryDx=0;entryDy=0;entryPerimeter=0;" edge="1" parent="1" source="2gnMtjLJQHhoRtekoATp-10" target="2gnMtjLJQHhoRtekoATp-14">
          <mxGeometry x="0.5068" y="10" relative="1" as="geometry">
            <mxPoint x="580" y="250" as="targetPoint" />
            <Array as="points">
              <mxPoint x="450" y="95" />
              <mxPoint x="450" y="250" />
            </Array>
            <mxPoint as="offset" />
          </mxGeometry>
        </mxCell>
        <mxCell id="2gnMtjLJQHhoRtekoATp-10" value="Link sys" style="fontColor=#0066CC;verticalAlign=top;verticalLabelPosition=bottom;labelPosition=center;align=center;html=1;outlineConnect=0;fillColor=#CCCCCC;strokeColor=#6881B3;gradientColor=none;gradientDirection=north;strokeWidth=2;shape=mxgraph.networks.hub;" vertex="1" parent="1">
          <mxGeometry x="270" y="80" width="100" height="30" as="geometry" />
        </mxCell>
        <mxCell id="2gnMtjLJQHhoRtekoATp-11" value="GrandStream" style="fontColor=#0066CC;verticalAlign=top;verticalLabelPosition=bottom;labelPosition=center;align=center;html=1;outlineConnect=0;fillColor=#CCCCCC;strokeColor=#6881B3;gradientColor=none;gradientDirection=north;strokeWidth=2;shape=mxgraph.networks.modem;" vertex="1" parent="1">
          <mxGeometry x="270" y="180" width="100" height="30" as="geometry" />
        </mxCell>
        <mxCell id="2gnMtjLJQHhoRtekoATp-12" value="Victor" style="fontColor=#0066CC;verticalAlign=top;verticalLabelPosition=bottom;labelPosition=center;align=center;html=1;outlineConnect=0;fillColor=#CCCCCC;strokeColor=#6881B3;gradientColor=none;gradientDirection=north;strokeWidth=2;shape=mxgraph.networks.pc;" vertex="1" parent="1">
          <mxGeometry x="530" y="150" width="50" height="40" as="geometry" />
        </mxCell>
        <mxCell id="2gnMtjLJQHhoRtekoATp-13" value="Miriam" style="fontColor=#0066CC;verticalAlign=top;verticalLabelPosition=bottom;labelPosition=center;align=center;html=1;outlineConnect=0;fillColor=#CCCCCC;strokeColor=#6881B3;gradientColor=none;gradientDirection=north;strokeWidth=2;shape=mxgraph.networks.pc;" vertex="1" parent="1">
          <mxGeometry x="530" y="30" width="40" height="40" as="geometry" />
        </mxCell>
        <mxCell id="2gnMtjLJQHhoRtekoATp-14" value="" style="fontColor=#0066CC;verticalAlign=top;verticalLabelPosition=bottom;labelPosition=center;align=center;html=1;outlineConnect=0;fillColor=#CCCCCC;strokeColor=#6881B3;gradientColor=none;gradientDirection=north;strokeWidth=2;shape=mxgraph.networks.phone_2;" vertex="1" parent="1">
          <mxGeometry x="560" y="240" width="40" height="40" as="geometry" />
        </mxCell>
      </root>
    </mxGraphModel>
  </diagram>
</mxfile>
